<svg width="55" height="37" viewBox="0 0 55 37" fill="none" xmlns="http://www.w3.org/2000/svg">
<rect x="0.650967" y="0.385266" width="53.1667" height="36.215" rx="4.23792" fill="white" stroke="#D9D9D9" stroke-width="0.770531"/>
<path fill-rule="evenodd" clip-rule="evenodd" d="M43.5632 21.496H44.8935H44.8947C45.0339 21.4987 45.1495 21.387 45.1546 21.245V17.4794C45.1546 17.0064 45.1794 16.5793 45.3661 16.1522C45.4943 15.8273 45.7962 15.6085 46.1388 15.5923C46.9898 15.5923 46.9816 16.5446 46.9752 17.2927C46.9746 17.3558 46.9741 17.4175 46.9741 17.477V21.2763C46.9906 21.3982 47.09 21.4907 47.2104 21.496H48.5526C48.6798 21.4987 48.7894 21.4048 48.8089 21.2763V16.8737C48.8089 16.1968 48.8089 15.2545 48.4604 14.6947C48.0835 14.0914 47.4999 13.8706 46.902 13.8706C45.9805 13.8706 45.4571 14.3267 45.0837 15.2835H45.0578V14.2133C45.0308 14.1014 44.9342 14.0215 44.8215 14.0178H43.5833C43.4524 14.0145 43.341 14.1142 43.3269 14.247V21.245C43.3286 21.3791 43.432 21.4889 43.5632 21.496ZM42.3108 17.8262C42.3108 15.6182 41.2393 13.8808 39.2579 13.8808C37.3274 13.8808 36.2558 15.5893 36.2558 17.7526C36.2558 19.9159 37.3144 21.6534 39.2579 21.6534C41.1294 21.6534 42.3108 19.9606 42.3108 17.8262ZM38.2241 17.5315C38.2241 16.6772 38.2867 15.309 39.2709 15.309C39.6938 15.309 39.9928 15.5033 40.1428 15.9859C40.3177 16.5445 40.3425 17.2515 40.3425 17.8403C40.3425 18.738 40.3035 20.21 39.2579 20.21C38.2237 20.21 38.2239 18.4253 38.2241 17.5598L38.2241 17.5315ZM13.2596 21.5103H14.5935H14.5947C14.6616 21.5119 14.7265 21.4862 14.7748 21.4388C14.8231 21.3915 14.851 21.3265 14.8523 21.2581V17.5504L14.8522 17.4924C14.8517 16.6862 14.851 15.6199 15.7738 15.6199C16.627 15.6199 16.6138 16.5568 16.6031 17.3133C16.602 17.3949 16.6008 17.4744 16.6008 17.5504V21.2593C16.6031 21.3932 16.7062 21.5027 16.8371 21.5103H18.1746C18.2413 21.5115 18.3058 21.4857 18.3539 21.4384C18.402 21.3911 18.4297 21.3262 18.4309 21.2581V17.5504L18.4308 17.4622C18.43 17.0694 18.4289 16.5393 18.5562 16.2099C18.6859 15.8733 18.9996 15.6479 19.3537 15.6368C19.74 15.6368 20.0389 15.7695 20.1382 16.2401C20.1888 16.4666 20.1823 16.9915 20.1779 17.3397V17.3397V17.3397C20.1769 17.4219 20.176 17.4942 20.176 17.5504V21.2593C20.1777 21.3935 20.2811 21.5033 20.4123 21.5103H21.7462C21.8131 21.5119 21.8779 21.4862 21.9263 21.4388C21.9746 21.3915 22.0025 21.3265 22.0037 21.2581V16.8434C22.0037 16.7357 22.0055 16.6257 22.0074 16.5145C22.0183 15.8553 22.0299 15.1537 21.667 14.6499C21.2271 14.0784 20.5195 13.7936 19.8161 13.9049C19.1127 14.0162 18.5227 14.5062 18.2726 15.1868C17.8981 14.3024 17.3629 13.891 16.5406 13.891C15.7183 13.891 15.1075 14.3024 14.7837 15.1868H14.7589V14.2734C14.7519 14.1433 14.6501 14.0393 14.5226 14.0321H13.2785C13.1411 14.0307 13.0278 14.1416 13.0233 14.2819V21.2798C13.0354 21.4057 13.1359 21.5037 13.2596 21.5103ZM10.9381 21.5635C10.8502 21.6413 10.724 21.6543 10.6226 21.596C10.2446 21.2748 10.1306 21.1012 9.95562 20.8346L9.95562 20.8346L9.95558 20.8345L9.95549 20.8344C9.92542 20.7886 9.89355 20.74 9.85822 20.6875C9.12453 21.45 8.60586 21.6781 7.65714 21.6781C6.53355 21.6781 5.65926 20.9698 5.65926 19.5534C5.65926 18.447 6.25 17.6953 7.07703 17.3261C7.68773 17.0524 8.50255 16.9675 9.207 16.894C9.33799 16.8804 9.46515 16.8671 9.58649 16.8531V16.677C9.58649 16.6433 9.58675 16.6091 9.58702 16.5744C9.58936 16.274 9.59196 15.9396 9.42462 15.6876C9.26158 15.4367 8.95203 15.3341 8.67557 15.3341C8.16635 15.3341 7.71267 15.6007 7.60161 16.1521C7.58753 16.2808 7.49062 16.3837 7.36531 16.4031L6.08223 16.2595C6.01821 16.2501 5.96074 16.2144 5.92323 16.1606C5.88572 16.1068 5.87145 16.0396 5.88374 15.9748C6.18029 14.3725 7.59806 13.8887 8.86815 13.8887C9.51796 13.8887 10.3663 14.0648 10.8767 14.5667C11.4758 15.1396 11.4721 15.8896 11.4681 16.7091C11.4677 16.7768 11.4674 16.8449 11.4674 16.9135V19.0358C11.4674 19.6073 11.6751 19.8917 11.8938 20.1911C11.9198 20.2267 11.9459 20.2625 11.9719 20.299C12.0569 20.4197 12.0759 20.5705 11.9719 20.661C11.699 20.8938 11.2146 21.3234 10.9487 21.5659L10.9381 21.5635ZM9.59221 18.2406L9.59225 18.3067C9.59272 18.8085 9.59312 19.2341 9.34292 19.6885C9.13026 20.0721 8.79353 20.3086 8.41783 20.3086C7.90625 20.3086 7.60733 19.9105 7.60733 19.3193C7.60733 18.1586 8.62695 17.9474 9.59221 17.9474V18.2406ZM29.3865 20.1868L29.3866 20.1869C29.4126 20.2225 29.4388 20.2583 29.4647 20.2948C29.5545 20.4203 29.5734 20.5675 29.4588 20.6507C29.1859 20.8836 28.7015 21.3143 28.4357 21.5556C28.3473 21.6324 28.2215 21.6449 28.1202 21.587C27.7406 21.2644 27.6281 21.0933 27.4506 20.8232L27.4504 20.823C27.4208 20.7779 27.3894 20.7302 27.3546 20.6785C26.6221 21.441 26.0999 21.669 25.1547 21.669C24.0311 21.669 23.1568 20.9608 23.1568 19.5455C23.1568 18.4379 23.744 17.6863 24.5805 17.317C25.1925 17.0423 26.0119 16.9578 26.7184 16.8849C26.8466 16.8717 26.9711 16.8588 27.09 16.8453V16.6728C27.09 16.6393 27.0902 16.6052 27.0905 16.5707C27.0928 16.2702 27.0954 15.9357 26.9269 15.6846C26.7686 15.4336 26.4532 15.3299 26.1779 15.3299C25.6687 15.3299 25.2173 15.5965 25.1051 16.1479C25.0906 16.2763 24.9939 16.3791 24.8688 16.3989L23.5751 16.2565C23.5106 16.2475 23.4526 16.2117 23.4148 16.1575C23.377 16.1034 23.3628 16.0358 23.3754 15.9706C23.6731 14.3671 25.0909 13.8844 26.361 13.8844C27.0096 13.8844 27.8579 14.0606 28.3695 14.5625C28.9699 15.1324 28.9657 15.8766 28.9611 16.6919C28.9607 16.7638 28.9602 16.8363 28.9602 16.9092V19.0327C28.9602 19.6031 29.1678 19.8873 29.3865 20.1868ZM25.9179 20.3018C26.2925 20.3018 26.6304 20.0653 26.8418 19.6828C27.0929 19.226 27.0927 18.7984 27.0923 18.2903L27.0923 18.2362V17.9418C26.1271 17.9418 25.1074 18.1517 25.1074 19.3136C25.1074 19.9036 25.4064 20.3018 25.9179 20.3018ZM30.5942 14.2578V15.2544C30.5935 15.3228 30.6203 15.3885 30.6683 15.4361C30.7163 15.4838 30.7813 15.5093 30.8482 15.5066H33.145L30.5115 19.3675C30.3913 19.5746 30.3345 19.8137 30.3484 20.0541V21.0736C30.3484 21.2208 30.5079 21.3885 30.6603 21.3052C32.1128 20.5361 33.8401 20.533 35.2953 21.2968C35.4619 21.3849 35.619 21.2147 35.619 21.0675V19.9961C35.6145 19.8323 35.5243 19.6835 35.3827 19.6064C34.6159 19.166 33.7239 19.0369 32.8803 19.0575L35.1535 15.7443C35.365 15.4475 35.4831 15.2593 35.4831 15.1157V14.2578C35.4838 14.1897 35.4572 14.1242 35.4094 14.0766C35.3617 14.029 35.297 14.0034 35.2303 14.0057H30.8435C30.7767 14.0018 30.7115 14.0271 30.6639 14.0752C30.6164 14.1232 30.5911 14.1896 30.5942 14.2578Z" fill="black"/>
<path fill-rule="evenodd" clip-rule="evenodd" d="M32.7884 25.9601C33.0921 25.1891 33.7679 23.4613 33.4465 23.0427H33.4489C33.1289 22.6231 31.3331 22.8433 30.5253 22.9423L30.5236 22.9425C30.2778 22.9727 30.24 22.7543 30.4609 22.5962C31.8952 21.5671 34.2452 21.8615 34.5181 22.2089C34.791 22.5564 34.4437 24.9623 33.1003 26.1109C32.8936 26.287 32.6963 26.1929 32.7884 25.9601ZM23.1369 27.1494C26.2607 27.1494 29.8985 26.142 32.4044 24.2537V24.2574C32.8191 23.9388 32.4635 23.4707 32.0405 23.6541C29.3052 24.8323 26.369 25.4473 23.4004 25.4639C19.2818 25.4639 15.2978 24.3104 12.0748 22.3957C11.7924 22.228 11.5821 22.5236 11.8184 22.7395C14.9213 25.5985 18.9578 27.1712 23.1369 27.1494Z" fill="#FF9900"/>
</svg>
