<svg width="24" height="24" viewBox="0 0 24 24" fill="none" xmlns="http://www.w3.org/2000/svg">
<path d="M23.6428 14.9025C22.0447 21.3273 15.5222 25.2408 9.09746 23.6428C2.67274 22.0447 -1.2408 15.5222 0.35723 9.09746C1.95526 2.67274 8.47782 -1.2408 14.9025 0.35723C21.3273 1.95526 25.2408 8.47782 23.6428 14.9025Z" fill="#F7931A"/>
<path d="M17.3156 10.3041C17.5439 8.70603 16.3373 7.8581 14.674 7.27107L15.2284 5.11862L13.9239 4.79249L13.3695 6.87971C13.0108 6.78188 12.652 6.71665 12.3259 6.61881L12.8477 4.49898L11.5432 4.17285L10.9888 6.3253C10.6952 6.26007 10.4343 6.19484 10.1408 6.12962L8.31451 5.67304L7.95577 7.07539C7.95577 7.07539 8.93415 7.30368 8.90154 7.30368C9.42335 7.43413 9.52118 7.79287 9.52118 8.05378L8.90154 10.5323L8.05361 14.0219C7.98838 14.185 7.82532 14.4133 7.43396 14.348C7.43396 14.3807 6.48819 14.1198 6.48819 14.1198L5.83594 15.6199L7.56442 16.0439C7.89054 16.1091 8.18406 16.207 8.51019 16.2722L7.95577 18.4573L9.26028 18.7834L9.8147 16.6309C10.1734 16.7288 10.5322 16.8266 10.8583 16.8918L10.3365 19.0443L11.641 19.3704L12.1954 17.1854C14.4457 17.6093 16.1416 17.4463 16.8265 15.3917C17.4135 13.761 16.7938 12.8152 15.6198 12.1956C16.4677 12.0325 17.12 11.4781 17.3156 10.3041ZM14.2827 14.5111C13.8913 16.1418 11.1192 15.2612 10.2387 15.0329L10.9561 12.1304C11.8367 12.3587 14.7066 12.8152 14.2827 14.5111ZM14.7066 10.2714C14.3479 11.7716 12.0324 10.9889 11.2823 10.8259L11.9345 8.18423C12.6846 8.3799 15.098 8.70603 14.7066 10.2714Z" fill="white"/>
</svg>
