<svg width="24" height="24" viewBox="0 0 24 24" fill="none" xmlns="http://www.w3.org/2000/svg">
<path d="M12 24C18.6274 24 24 18.6274 24 12C24 5.37258 18.6274 0 12 0C5.37258 0 0 5.37258 0 12C0 18.6274 5.37258 24 12 24Z" fill="#627EEA"/>
<path d="M12.3867 2.9834V9.63545L18.0279 12.1463L12.3867 2.9834Z" fill="white" fill-opacity="0.602"/>
<path d="M12.3873 2.9834L6.74609 12.1463L12.3873 9.63545V2.9834Z" fill="white"/>
<path d="M12.3867 16.4835V21.016L18.0279 13.2227L12.3867 16.4835Z" fill="white" fill-opacity="0.602"/>
<path d="M12.3873 20.9834V16.4835L6.74609 13.2227L12.3873 20.9834Z" fill="white"/>
<path d="M12.3867 15.4074L18.0279 12.1466L12.3867 9.63574V15.4074Z" fill="white" fill-opacity="0.2"/>
<path d="M6.74609 12.1466L12.3873 15.4074V9.63574L6.74609 12.1466Z" fill="white" fill-opacity="0.602"/>
</svg>
