<svg width="55" height="37" viewBox="0 0 55 37" fill="none" xmlns="http://www.w3.org/2000/svg">
<rect x="0.916668" y="0.385266" width="53.1667" height="36.215" rx="4.23792" fill="white" stroke="#D9D9D9" stroke-width="0.770531"/>
<path fill-rule="evenodd" clip-rule="evenodd" d="M34.6253 29.3266C40.433 29.3266 45.1411 24.5639 45.1411 18.6887C45.1411 12.8135 40.433 8.05078 34.6253 8.05078C32.0224 8.05078 29.6404 9.00741 27.8041 10.5921C25.9678 9.00746 23.5859 8.05086 20.9831 8.05086C15.1753 8.05086 10.4672 12.8136 10.4672 18.6888C10.4672 24.564 15.1753 29.3267 20.9831 29.3267C23.5859 29.3267 25.9679 28.3701 27.8042 26.7854C29.6405 28.3701 32.0224 29.3266 34.6253 29.3266Z" fill="#ED0006"/>
<path fill-rule="evenodd" clip-rule="evenodd" d="M27.8042 26.7854C30.0653 24.8342 31.499 21.9308 31.499 18.6887C31.499 15.4466 30.0653 12.5432 27.8042 10.592C29.6405 9.00739 32.0225 8.05078 34.6253 8.05078C40.433 8.05078 45.1412 12.8135 45.1412 18.6887C45.1412 24.5639 40.433 29.3266 34.6253 29.3266C32.0225 29.3266 29.6405 28.37 27.8042 26.7854Z" fill="#F9A000"/>
<path fill-rule="evenodd" clip-rule="evenodd" d="M27.8043 26.785C30.0653 24.8338 31.499 21.9305 31.499 18.6884C31.499 15.4463 30.0653 12.543 27.8043 10.5918C25.5433 12.543 24.1096 15.4463 24.1096 18.6884C24.1096 21.9305 25.5433 24.8338 27.8043 26.785Z" fill="#FF5E00"/>
</svg>
