<svg width="54" height="37" viewBox="0 0 54 37" fill="none" xmlns="http://www.w3.org/2000/svg">
<rect x="0.448071" y="0.385266" width="53.1667" height="36.215" rx="4.23792" fill="white" stroke="#D9D9D9" stroke-width="0.770531"/>
<path fill-rule="evenodd" clip-rule="evenodd" d="M23.2467 28.4297L23.5969 26.1966L22.8168 26.1783H19.0921L21.6807 9.69877C21.6887 9.64886 21.7148 9.60254 21.7529 9.56959C21.7911 9.53663 21.8399 9.51855 21.8909 9.51855H28.1714C30.2566 9.51855 31.6954 9.95412 32.4466 10.8139C32.7988 11.2173 33.0231 11.6389 33.1317 12.1027C33.2455 12.5895 33.2474 13.171 33.1364 13.8804L33.1283 13.932V14.3865L33.4805 14.5869C33.7771 14.7449 34.0128 14.9257 34.1936 15.1326C34.4948 15.4776 34.6897 15.916 34.772 16.4355C34.8572 16.97 34.829 17.6061 34.6897 18.3262C34.5289 19.1544 34.2692 19.8758 33.9183 20.4659C33.5957 21.0098 33.1846 21.461 32.6964 21.8105C32.2303 22.1426 31.6767 22.3948 31.0507 22.5562C30.4439 22.7147 29.7522 22.7948 28.9936 22.7948H28.5048C28.1554 22.7948 27.816 22.9211 27.5495 23.1477C27.2822 23.3789 27.1055 23.6949 27.0513 24.0404L27.0144 24.2415L26.3957 28.1778L26.3677 28.3222C26.3602 28.368 26.3475 28.3908 26.3287 28.4062C26.312 28.4203 26.288 28.4297 26.2646 28.4297H23.2467Z" fill="#28356A"/>
<path fill-rule="evenodd" clip-rule="evenodd" d="M33.8142 13.9849C33.7957 14.1052 33.7741 14.2282 33.7501 14.3545C32.9219 18.6242 30.0882 20.0993 26.4692 20.0993H24.6265C24.1839 20.0993 23.8109 20.4219 23.7421 20.8602L22.5314 28.5706C22.4866 28.8585 22.7075 29.1178 22.9967 29.1178H26.265C26.6519 29.1178 26.9807 28.8355 27.0416 28.4523L27.0737 28.2857L27.689 24.3649L27.7286 24.1498C27.7888 23.7653 28.1184 23.4828 28.5053 23.4828H28.994C32.1604 23.4828 34.6393 22.1921 35.3638 18.4568C35.6663 16.8965 35.5097 15.5936 34.7089 14.6773C34.4665 14.401 34.1659 14.1717 33.8142 13.9849Z" fill="#298FC2"/>
<path fill-rule="evenodd" clip-rule="evenodd" d="M32.9475 13.6373C32.8209 13.6002 32.6904 13.5667 32.5565 13.5364C32.4218 13.5068 32.284 13.4807 32.142 13.4577C31.6452 13.3771 31.1007 13.3389 30.5176 13.3389H25.595C25.4736 13.3389 25.3585 13.3664 25.2555 13.4161C25.0284 13.5257 24.8598 13.7415 24.8189 14.0057L23.7716 20.6654L23.7416 20.8596C23.8105 20.4212 24.1835 20.0986 24.6261 20.0986H26.4688C30.0877 20.0986 32.9214 18.6228 33.7497 14.3539C33.7744 14.2275 33.7952 14.1045 33.8138 13.9842C33.6043 13.8725 33.3774 13.7771 33.133 13.6957C33.0726 13.6756 33.0103 13.6562 32.9475 13.6373Z" fill="#22284F"/>
<path fill-rule="evenodd" clip-rule="evenodd" d="M24.8191 14.006C24.86 13.7418 25.0286 13.526 25.2558 13.4171C25.3595 13.3672 25.4739 13.3397 25.5952 13.3397H30.5178C31.1009 13.3397 31.6454 13.3781 32.1422 13.4587C32.2842 13.4815 32.422 13.5079 32.5567 13.5374C32.6906 13.5676 32.8211 13.6013 32.9477 13.6382C33.0106 13.657 33.0728 13.6766 33.1338 13.696C33.3782 13.7773 33.6053 13.8736 33.8148 13.9845C34.0612 12.4066 33.8127 11.3323 32.9631 10.3595C32.0263 9.28842 30.3357 8.83008 28.1723 8.83008H21.8917C21.4498 8.83008 21.0728 9.15265 21.0046 9.59179L18.3886 26.2408C18.337 26.5702 18.5901 26.8673 18.9209 26.8673H22.7983L24.8191 14.006Z" fill="#28356A"/>
</svg>
