<svg width="51" height="22" viewBox="0 0 51 22" fill="none" xmlns="http://www.w3.org/2000/svg">
<path fill-rule="evenodd" clip-rule="evenodd" d="M27.6109 3.28385L24.055 4.04698V1.16404L27.6109 0.415039V3.28385ZM35.0057 4.88076C33.6173 4.88076 32.7248 5.53084 32.229 5.98307L32.0448 5.10688H28.9281V21.5849L32.4698 20.8359L32.484 16.8365C32.994 17.2039 33.7448 17.7268 34.9915 17.7268C37.5273 17.7268 39.8365 15.6918 39.8365 11.2119C39.8223 7.11363 37.4848 4.88076 35.0057 4.88076ZM34.1556 14.6177C33.3198 14.6177 32.8239 14.321 32.4839 13.9535L32.4698 8.71055C32.8381 8.30072 33.3481 8.01808 34.1556 8.01808C35.4448 8.01808 36.3373 9.45955 36.3373 11.3108C36.3373 13.2045 35.4589 14.6177 34.1556 14.6177ZM51 11.3532C51 7.73544 49.2433 4.88076 45.8858 4.88076C42.5142 4.88076 40.4742 7.73544 40.4742 11.325C40.4742 15.5787 42.8825 17.7268 46.3392 17.7268C48.025 17.7268 49.3 17.3452 50.2633 16.8082V13.9818C49.3 14.4623 48.195 14.7591 46.7925 14.7591C45.4183 14.7591 44.2 14.2786 44.0442 12.611H50.9717C50.9717 12.5332 50.9768 12.3566 50.9826 12.153L50.9826 12.1527V12.1525V12.1524V12.1523V12.1523C50.9906 11.8753 51 11.5486 51 11.3532ZM44.0016 10.0107C44.0016 8.41379 44.9791 7.74958 45.8716 7.74958C46.7358 7.74958 47.6566 8.41379 47.6566 10.0107H44.0016ZM24.0548 5.12104H27.6107V17.4866H24.0548V5.12104ZM20.0176 5.12102L20.2443 6.16679C21.0801 4.64053 22.7376 4.95143 23.1909 5.12102V8.37139C22.7518 8.21594 21.3351 8.01809 20.4993 9.10626V17.4866H16.9576V5.12102H20.0176ZM13.1607 2.05434L9.70402 2.78921L9.68985 14.109C9.68985 16.2005 11.2624 17.7409 13.359 17.7409C14.5207 17.7409 15.3707 17.529 15.8382 17.2746V14.4058C15.3849 14.5895 13.1465 15.2396 13.1465 13.148V8.13113H15.8382V5.121H13.1465L13.1607 2.05434ZM4.78836 7.94745C4.03752 7.94745 3.58418 8.15943 3.58418 8.71058C3.58418 9.31235 4.36438 9.57707 5.3323 9.90547C6.91024 10.4409 8.98709 11.1455 8.99588 13.7557C8.99588 16.2854 6.97003 17.741 4.02335 17.741C2.80501 17.741 1.47334 17.5007 0.155834 16.9355V13.572C1.34584 14.2221 2.84751 14.7026 4.02335 14.7026C4.81669 14.7026 5.38336 14.4906 5.38336 13.8405C5.38336 13.174 4.53761 12.8693 3.51656 12.5015C1.96157 11.9413 0 11.2346 0 8.88017C0 6.37879 1.91251 4.88079 4.78836 4.88079C5.96419 4.88079 7.12587 5.06451 8.30171 5.53087V8.85191C7.22503 8.27249 5.86503 7.94745 4.78836 7.94745Z" fill="#6461FC"/>
</svg>
