<svg width="24" height="24" viewBox="0 0 24 24" fill="none" xmlns="http://www.w3.org/2000/svg">
<path d="M12 0C18.6196 0 24 5.38043 24 12C24 18.6196 18.6196 24 12 24C5.38044 24 0 18.6196 0 12C0 5.38043 5.34783 0 12 0Z" fill="#53AE94"/>
<path d="M13.4671 10.4023V8.60887H17.5431V5.90234H6.42358V8.60887H10.4997V10.4023C7.17358 10.5654 4.69531 11.2176 4.69531 12.0002C4.69531 12.7828 7.20619 13.435 10.4997 13.598V19.3045H13.4671V13.598C16.7931 13.435 19.2714 12.7828 19.2714 12.0002C19.2714 11.2176 16.7931 10.5654 13.4671 10.4023ZM13.4671 13.1089C13.3692 13.1089 12.9453 13.1415 11.9997 13.1415C11.2497 13.1415 10.6953 13.1089 10.4997 13.1089C7.56488 12.9784 5.3801 12.4567 5.3801 11.8697C5.3801 11.2828 7.56488 10.761 10.4997 10.6306V12.6197C10.6953 12.6197 11.2497 12.6523 11.9997 12.6523C12.9127 12.6523 13.3692 12.6197 13.4671 12.6197V10.6306C16.4018 10.761 18.5866 11.2828 18.5866 11.8697C18.5866 12.4893 16.4018 12.9784 13.4671 13.1089Z" fill="white"/>
</svg>
