<svg width="54" height="37" viewBox="0 0 54 37" fill="none" xmlns="http://www.w3.org/2000/svg">
<rect x="0.385266" y="0.385266" width="53.1667" height="36.215" rx="4.23792" fill="white" stroke="#D9D9D9" stroke-width="0.770531"/>
<path fill-rule="evenodd" clip-rule="evenodd" d="M16.3742 25.0554H13.1066L10.6563 15.7075C10.54 15.2775 10.2931 14.8974 9.92987 14.7182C9.02337 14.2679 8.02447 13.9096 6.93475 13.7289V13.369H12.1985C12.925 13.369 13.4699 13.9096 13.5607 14.5375L14.832 21.2804L18.0979 13.369H21.2747L16.3742 25.0554ZM23.0909 25.0554H20.005L22.5461 13.369H25.632L23.0909 25.0554ZM29.6243 16.6066C29.7151 15.9772 30.26 15.6173 30.8956 15.6173C31.8945 15.5269 32.9827 15.7077 33.8908 16.1564L34.4356 13.6402C33.5275 13.2803 32.5286 13.0996 31.6221 13.0996C28.627 13.0996 26.4476 14.7184 26.4476 16.965C26.4476 18.6741 27.9913 19.5715 29.081 20.1121C30.26 20.6511 30.714 21.011 30.6232 21.5501C30.6232 22.3587 29.7151 22.7186 28.8086 22.7186C27.7189 22.7186 26.6292 22.4491 25.6319 21.9988L25.087 24.5165C26.1767 24.9652 27.3557 25.1459 28.4454 25.1459C31.8037 25.2347 33.8908 23.6175 33.8908 21.1902C33.8908 18.1334 29.6243 17.9543 29.6243 16.6066ZM44.6908 25.0554L42.2406 13.369H39.6087C39.0638 13.369 38.519 13.7289 38.3374 14.2679L33.8001 25.0554H36.9768L37.6109 23.3479H41.5141L41.8773 25.0554H44.6908ZM40.0627 16.5166L40.9692 20.921H38.4282L40.0627 16.5166Z" fill="#172B85"/>
</svg>
