<svg width="246" height="249" viewBox="0 0 246 249" fill="none" xmlns="http://www.w3.org/2000/svg">
<g id="Group 460">
<g id="Group 455">
<path id="Path 764" d="M182.235 187.408C182.46 187.817 182.579 188.277 182.582 188.744L182.604 193.202C182.613 194.021 182.4 194.828 181.989 195.536C181.578 196.245 180.983 196.829 180.267 197.228L177.421 198.794C176.701 199.186 175.889 199.376 175.071 199.345C174.252 199.313 173.457 199.061 172.77 198.616L168.712 196.087L168.66 201.837C168.664 202.582 168.371 203.299 167.847 203.828C167.323 204.358 166.609 204.658 165.864 204.662C165.119 204.665 164.402 204.373 163.872 203.849C163.343 203.324 163.043 202.611 163.039 201.865L163.017 197.407C163.008 196.588 163.221 195.781 163.632 195.073C164.043 194.364 164.638 193.78 165.354 193.382L168.2 191.815C168.92 191.423 169.732 191.233 170.55 191.265C171.369 191.296 172.164 191.548 172.851 191.993L176.893 194.744L176.961 188.772C176.958 188.147 177.163 187.539 177.544 187.044C177.926 186.548 178.461 186.194 179.066 186.037C179.671 185.881 180.311 185.93 180.885 186.178C181.459 186.425 181.934 186.857 182.235 187.405L182.235 187.408Z" fill="#8BB6EF"/>
<path id="Path 765" d="M168.71 196.093L169.138 196.359L172.768 198.622C173.357 199.002 174.026 199.241 174.723 199.322C175.42 199.402 176.125 199.32 176.786 199.084C176.834 197.781 176.916 196.052 176.889 194.747L176.371 194.395L172.845 192C172.227 191.601 171.522 191.357 170.789 191.288C170.057 191.22 169.318 191.33 168.637 191.609C168.679 192.943 168.695 194.756 168.71 196.093Z" fill="#8388EF"/>
</g>
<g id="Group 456">
<path id="Path 766" d="M134.522 2.28491C134.108 2.74599 133.817 3.30366 133.674 3.90673L132.309 9.64907C132.052 10.7024 132.084 11.8056 132.402 12.8421C132.72 13.8786 133.312 14.8101 134.116 15.5382L137.317 18.406C138.127 19.1265 139.117 19.6149 140.181 19.8197C141.246 20.0246 142.346 19.9383 143.366 19.57L149.354 17.5258L147.697 24.9529C147.584 25.4281 147.565 25.9209 147.643 26.4032C147.72 26.8854 147.892 27.3477 148.148 27.7636C148.404 28.1795 148.74 28.5409 149.135 28.8271C149.531 29.1133 149.979 29.3188 150.455 29.4318C150.93 29.5448 151.423 29.5631 151.905 29.4857C152.387 29.4082 152.849 29.2366 153.265 28.9805C153.681 28.7244 154.043 28.3888 154.329 27.9931C154.615 27.5973 154.82 27.1491 154.933 26.6739L156.299 20.9315C156.556 19.8782 156.523 18.775 156.205 17.7385C155.887 16.702 155.295 15.7706 154.492 15.0424L151.291 12.1746C150.481 11.4542 149.491 10.9658 148.427 10.7609C147.362 10.556 146.262 10.6423 145.242 11.0106L139.207 13.3442L140.91 5.6264C141.101 4.82168 141.019 3.97622 140.676 3.22368C140.333 2.47113 139.748 1.85441 139.016 1.47098C138.283 1.08755 137.443 0.9593 136.629 1.10647C135.815 1.25364 135.074 1.66786 134.521 2.28364L134.522 2.28491Z" fill="#A183E2"/>
<path id="Path 767" d="M149.353 17.5317L148.722 17.747L143.365 19.5759C142.49 19.8902 141.555 19.9988 140.632 19.8933C139.709 19.7878 138.823 19.4711 138.042 18.9676C138.368 17.2775 138.782 15.0209 139.209 13.3467L139.983 13.0474L145.244 11.0122C146.16 10.6824 147.143 10.579 148.107 10.7108C149.072 10.8425 149.991 11.2056 150.785 11.7691C150.337 13.4809 149.773 15.8137 149.353 17.5317Z" fill="#9762E2"/>
</g>
<g id="Group 457">
<path id="Path 768" d="M25.1919 138.527C25.7986 138.24 26.3237 137.805 26.7188 137.263L30.4919 132.102C31.1901 131.158 31.6206 130.043 31.738 128.875C31.8554 127.706 31.6553 126.528 31.1588 125.464L29.1699 121.253C28.6631 120.194 27.8798 119.291 26.9026 118.639C25.9254 117.988 24.7906 117.613 23.6178 117.553L16.7808 117.081L21.5519 110.36C22.1515 109.497 22.3898 108.433 22.216 107.396C22.0422 106.36 21.4701 105.432 20.6217 104.811C19.7733 104.191 18.7159 103.926 17.6752 104.074C16.6346 104.223 15.6931 104.772 15.0519 105.605L11.2788 110.766C10.5806 111.71 10.1501 112.825 10.0327 113.993C9.9153 115.161 10.1154 116.34 10.6119 117.404L12.6009 121.615C13.1075 122.674 13.8907 123.577 14.8677 124.228C15.8447 124.879 16.9793 125.255 18.1518 125.315L25.1569 125.515L20.2179 132.507C19.6894 133.23 19.417 134.109 19.4438 135.004C19.4706 135.9 19.795 136.761 20.3658 137.451C20.9365 138.141 21.7211 138.622 22.5954 138.817C23.4698 139.011 24.3841 138.909 25.1939 138.526L25.1919 138.527Z" fill="#FFA585"/>
<path id="Path 769" d="M16.4016 117.651L16.7816 117.082L23.6186 117.554C24.6236 117.607 25.6028 117.891 26.4804 118.384C27.3579 118.876 28.1101 119.565 28.6786 120.395C27.7546 121.777 26.7786 123.122 25.7786 124.453C25.5304 124.783 25.3207 125.14 25.1536 125.518L18.1486 125.318C17.0954 125.263 16.0711 124.954 15.1631 124.417C14.2551 123.881 13.4902 123.133 12.9336 122.237C14.0986 120.715 15.2606 119.192 16.4006 117.653L16.4016 117.651Z" fill="#EF7C85"/>
</g>
<path id="Path 770" d="M218.817 116.208L214.959 114.279C214.406 114.002 213.986 113.518 213.79 112.932C213.595 112.345 213.641 111.706 213.917 111.153L215.846 107.295C216.122 106.742 216.607 106.322 217.193 106.126C217.779 105.931 218.419 105.976 218.972 106.253L222.83 108.182C223.383 108.458 223.803 108.943 223.998 109.529C224.194 110.115 224.148 110.755 223.872 111.308L221.943 115.166C221.667 115.719 221.182 116.139 220.596 116.334C220.009 116.53 219.37 116.484 218.817 116.208Z" fill="#FFE266"/>
<path id="Path 771" d="M60.5988 33.3771L65.6988 31.9191C66.0608 31.8155 66.4396 31.7844 66.8136 31.8273C67.1877 31.8702 67.5496 31.9864 67.8787 32.1693C68.2078 32.3522 68.4977 32.5981 68.7317 32.893C68.9658 33.1879 69.1394 33.526 69.2428 33.8881L70.7008 38.9881C70.8043 39.35 70.8355 39.7289 70.7925 40.1029C70.7496 40.477 70.6334 40.8389 70.4505 41.168C70.2677 41.4971 70.0218 41.787 69.7269 42.021C69.432 42.2551 69.0938 42.4287 68.7318 42.5321L63.6318 43.9901C63.2698 44.0936 62.8909 44.1248 62.5169 44.0818C62.1428 44.0389 61.7809 43.9227 61.4518 43.7398C61.1227 43.557 60.8328 43.3111 60.5988 43.0162C60.3647 42.7213 60.1911 42.3831 60.0878 42.0211L58.6298 36.9211C58.421 36.19 58.5111 35.4059 58.8804 34.7413C59.2496 34.0767 59.8677 33.586 60.5988 33.3771Z" fill="#00403F"/>
<path id="Path 772" d="M76.807 206.003L71.361 209.147C70.5806 209.596 69.6538 209.718 68.7839 209.485C67.914 209.252 67.1721 208.683 66.721 207.904L63.577 202.458C63.1274 201.677 63.0058 200.751 63.2389 199.881C63.4719 199.011 64.0405 198.269 64.82 197.818L70.266 194.674C71.0463 194.224 71.9732 194.103 72.8431 194.336C73.713 194.569 74.4549 195.137 74.906 195.917L78.05 201.363C78.4996 202.143 78.6212 203.07 78.3882 203.94C78.1551 204.81 77.5865 205.552 76.807 206.003Z" fill="#78EAC4"/>
<path id="Path 773" d="M27.5497 168.17L29.5737 173.86C29.6129 173.977 29.6752 174.084 29.7568 174.176C29.8384 174.267 29.9377 174.342 30.0487 174.394L35.1047 176.672C35.2664 176.758 35.4016 176.887 35.496 177.044C35.5903 177.2 35.6402 177.38 35.6402 177.563C35.6402 177.746 35.5903 177.926 35.496 178.083C35.4016 178.24 35.2664 178.368 35.1047 178.454L30.0477 180.731C29.9366 180.784 29.8374 180.858 29.7557 180.95C29.6741 181.042 29.6119 181.149 29.5727 181.265L27.5487 186.955C27.5009 187.129 27.3976 187.281 27.2546 187.39C27.1117 187.499 26.9369 187.558 26.7572 187.558C26.5774 187.558 26.4027 187.499 26.2597 187.39C26.1167 187.281 26.0134 187.129 25.9657 186.955L23.9417 181.265C23.9024 181.149 23.8401 181.042 23.7585 180.95C23.6769 180.858 23.5776 180.784 23.4667 180.731L18.4107 178.453C18.2487 178.368 18.1131 178.239 18.0185 178.082C17.924 177.925 17.874 177.746 17.874 177.562C17.874 177.379 17.924 177.199 18.0185 177.042C18.1131 176.885 18.2487 176.757 18.4107 176.671L23.4667 174.393C23.5777 174.341 23.677 174.267 23.7586 174.175C23.8403 174.083 23.9025 173.976 23.9417 173.859L25.9657 168.169C26.0134 167.996 26.1167 167.843 26.2597 167.734C26.4027 167.625 26.5774 167.566 26.7572 167.566C26.9369 167.566 27.1117 167.625 27.2546 167.734C27.3976 167.843 27.5009 167.996 27.5487 168.169L27.5497 168.17Z" fill="#CAB4EF"/>
<path id="Path 774" d="M202.118 49.8604L203.7 54.3094C203.73 54.4004 203.779 54.4844 203.843 54.5562C203.907 54.6281 203.984 54.6863 204.071 54.7274L208.018 56.5074C208.144 56.5746 208.25 56.6749 208.324 56.7976C208.397 56.9203 208.436 57.0608 208.436 57.2039C208.436 57.347 208.397 57.4874 208.324 57.6101C208.25 57.7328 208.144 57.8331 208.018 57.9004L204.065 59.6814C203.978 59.7226 203.901 59.7808 203.837 59.8526C203.773 59.9244 203.725 60.0084 203.694 60.0994L202.118 64.5484C202.081 64.6839 202 64.8035 201.888 64.8887C201.776 64.9739 201.64 65.0201 201.499 65.0201C201.358 65.0201 201.222 64.9739 201.11 64.8887C200.998 64.8035 200.917 64.6839 200.88 64.5484L199.298 60.0994C199.267 60.0083 199.219 59.9243 199.155 59.8525C199.091 59.7807 199.014 59.7225 198.927 59.6814L194.974 57.9004C194.848 57.8331 194.742 57.7328 194.668 57.6101C194.595 57.4874 194.556 57.347 194.556 57.2039C194.556 57.0608 194.595 56.9203 194.668 56.7976C194.742 56.6749 194.848 56.5746 194.974 56.5074L198.927 54.7264C199.014 54.6852 199.091 54.6269 199.155 54.5551C199.219 54.4833 199.267 54.3994 199.298 54.3084L200.877 49.8604C200.914 49.7248 200.995 49.6052 201.107 49.52C201.219 49.4348 201.355 49.3887 201.496 49.3887C201.637 49.3887 201.773 49.4348 201.885 49.52C201.997 49.6052 202.078 49.7248 202.115 49.8604H202.118Z" fill="#FFC7B6"/>
<path id="Path 775" d="M115.901 206.566L117.483 211.015C117.514 211.106 117.562 211.19 117.626 211.262C117.69 211.334 117.767 211.392 117.854 211.433L121.801 213.213C121.928 213.281 122.033 213.381 122.107 213.504C122.181 213.626 122.219 213.767 122.219 213.91C122.219 214.053 122.181 214.193 122.107 214.316C122.033 214.439 121.928 214.539 121.801 214.606L117.848 216.387C117.761 216.429 117.684 216.487 117.62 216.559C117.556 216.63 117.508 216.714 117.477 216.805L115.901 221.254C115.864 221.39 115.783 221.51 115.671 221.595C115.559 221.68 115.423 221.726 115.282 221.726C115.142 221.726 115.005 221.68 114.893 221.595C114.781 221.51 114.7 221.39 114.663 221.254L113.081 216.805C113.051 216.714 113.002 216.63 112.938 216.559C112.875 216.487 112.797 216.429 112.71 216.387L108.757 214.606C108.631 214.539 108.525 214.439 108.451 214.316C108.378 214.193 108.339 214.053 108.339 213.91C108.339 213.767 108.378 213.626 108.451 213.504C108.525 213.381 108.631 213.281 108.757 213.213L112.71 211.432C112.797 211.391 112.874 211.333 112.938 211.261C113.002 211.189 113.051 211.105 113.081 211.014L114.66 206.566C114.697 206.431 114.778 206.311 114.89 206.226C115.002 206.141 115.139 206.095 115.279 206.095C115.42 206.095 115.556 206.141 115.668 206.226C115.78 206.311 115.861 206.431 115.898 206.566H115.901Z" fill="#FFC7B6"/>
<path id="Ellipse 11" d="M38.6231 73.8323C40.6914 72.975 41.6731 70.6033 40.8158 68.5349C39.9585 66.4666 37.5868 65.4849 35.5185 66.3422C33.4501 67.1995 32.4684 69.5712 33.3258 71.6396C34.1831 73.7079 36.5548 74.6896 38.6231 73.8323Z" fill="#8BB6EF"/>
<path id="Ellipse 18" d="M217.037 139.641C218.054 139.219 218.537 138.053 218.115 137.037C217.694 136.02 216.528 135.537 215.511 135.959C214.494 136.38 214.012 137.546 214.433 138.563C214.855 139.58 216.02 140.062 217.037 139.641Z" fill="#8BB6EF"/>
<path id="Ellipse 12" d="M211.266 175.606C212.828 175.606 214.093 174.34 214.093 172.779C214.093 171.218 212.828 169.952 211.266 169.952C209.705 169.952 208.439 171.218 208.439 172.779C208.439 174.34 209.705 175.606 211.266 175.606Z" fill="#00403F"/>
<path id="Ellipse 13" d="M149.679 227.814C151.24 227.814 152.506 226.548 152.506 224.987C152.506 223.426 151.24 222.16 149.679 222.16C148.117 222.16 146.852 223.426 146.852 224.987C146.852 226.548 148.117 227.814 149.679 227.814Z" fill="#FFE266"/>
<path id="Ellipse 14" d="M107.679 26.8142C109.24 26.8142 110.506 25.5485 110.506 23.9872C110.506 22.4258 109.24 21.1602 107.679 21.1602C106.117 21.1602 104.852 22.4258 104.852 23.9872C104.852 25.5485 106.117 26.8142 107.679 26.8142Z" fill="#FFE266"/>
<g id="Group 459">
<g id="Group" filter="url(#filter0_d_47_21654)">
<path id="Ellipse 10" d="M122.722 194.955C166.076 194.955 201.222 159.809 201.222 116.455C201.222 73.1007 166.076 37.9551 122.722 37.9551C79.3673 37.9551 44.2217 73.1007 44.2217 116.455C44.2217 159.809 79.3673 194.955 122.722 194.955Z" fill="#00403F"/>
</g>
</g>
<g id="Group_2">
<path id="Vector" d="M122 189C163.421 189 197 156.764 197 117C197 77.2355 163.421 45 122 45C80.5786 45 47 77.2355 47 117C47 156.764 80.5786 189 122 189Z" fill="#00403F"/>
<path id="Vector_2" d="M102.836 149.479L141.401 186.501C173.341 178.325 197 150.388 197 117V114.956L166.716 88.1543L102.836 149.479Z" fill="#00403F"/>
<path id="Vector_3" d="M123.893 133.126C127.205 136.306 127.205 141.757 123.893 144.937L117.032 151.524C113.719 154.704 108.041 154.704 104.729 151.524L74.6815 122.451C71.3692 119.271 71.3692 113.82 74.6815 110.641L81.5427 104.054C84.855 100.874 90.5332 100.874 93.8455 104.054L123.893 133.126Z" fill="white"/>
<path id="Vector_4" d="M150.155 82.9308C153.467 79.7509 159.145 79.7509 162.458 82.9308L169.319 89.5175C172.631 92.6973 172.631 98.1484 169.319 101.328L117.268 151.07C113.956 154.249 108.278 154.249 104.966 151.07L98.1043 144.483C94.792 141.303 94.792 135.852 98.1043 132.672L150.155 82.9308Z" fill="white"/>
</g>
</g>
<defs>
<filter id="filter0_d_47_21654" x="0.22168" y="3.95508" width="245" height="245" filterUnits="userSpaceOnUse" color-interpolation-filters="sRGB">
<feFlood flood-opacity="0" result="BackgroundImageFix"/>
<feColorMatrix in="SourceAlpha" type="matrix" values="0 0 0 0 0 0 0 0 0 0 0 0 0 0 0 0 0 0 127 0" result="hardAlpha"/>
<feOffset dy="10"/>
<feGaussianBlur stdDeviation="22"/>
<feColorMatrix type="matrix" values="0 0 0 0 0.827451 0 0 0 0 0.345098 0 0 0 0 0.494118 0 0 0 0.463 0"/>
<feBlend mode="normal" in2="BackgroundImageFix" result="effect1_dropShadow_47_21654"/>
<feBlend mode="normal" in="SourceGraphic" in2="effect1_dropShadow_47_21654" result="shape"/>
</filter>
</defs>
</svg>
