<svg width="25" height="24" viewBox="0 0 25 24" fill="none" xmlns="http://www.w3.org/2000/svg">
<g id="Verified ICon">
<g id="Group">
<g id="Group_2">
<g id="Group_3">
<path id="Vector" d="M15.0693 2.3999L16.6378 4.82661L19.5276 4.96964L19.673 7.85939L22.0997 9.42547L20.7833 12.0001L22.0997 14.5698L19.673 16.1383L19.5324 19.0281L16.6427 19.1735L15.0742 21.6002L12.4996 20.2838L9.92983 21.6002L8.36132 19.1735L5.474 19.0329L5.32612 16.1432L2.89941 14.5746L4.2158 12.0001L2.89941 9.43032L5.32612 7.86181L5.46915 4.97449L8.3589 4.82661L9.92498 2.3999L12.4996 3.71629L15.0693 2.3999Z" fill="#FF9F0A"/>
</g>
<g id="Group_4">
<path id="Vector_2" d="M11.3072 15.3144L8.33984 12.3471L9.30956 11.3798L11.3266 13.3895L15.6951 9.15186L16.6527 10.1361L11.3072 15.3144Z" fill="white"/>
</g>
</g>
</g>
</g>
</svg>
